# xmcd
#
# Track frame offsets:
#   150
#   12614
#   30042
#   43168
#   57731
#   70775
#   83907
#   93537
#   112514
#   123427
#   136182
#   149584
#   163406
#   177407
#
# Disc length: 2610 seconds
#
# Revision: 0
# Processed by: cddbd v1.5.1PL0 Copyright (c) Steve Scherf et al.
# Submitted via: Media_Universe 3.0
#
DISCID=c30a300e
DTITLE=Lee Kernaghan - The Outback Club
DYEAR=1900
DGENRE=Country
TTITLE0=Boys From The Bush
TTITLE1=High Country
TTITLE2=She Waits By The Sliprails
TTITLE3=Country Girls
TTITLE4=Country's Really Big These Days
TTITLE5=Youre The Reason I Never Saw Hank Jnr Play
TTITLE6=Rejected
TTITLE7=Scots Of The Riverina
TTITLE8=You Dont Have To Go To Memphis
TTITLE9=Searching For Another You
TTITLE10=Tallarook
TTITLE11=Cowgirls Do
TTITLE12=C'mon The Cowboys
TTITLE13=In My Next Life
EXTD=
EXTT0=
EXTT1=
EXTT2=
EXTT3=
EXTT4=
EXTT5=
EXTT6=
EXTT7=
EXTT8=
EXTT9=
EXTT10=
EXTT11=
EXTT12=
EXTT13=
PLAYORDER=
